<?xml version="1.0" standalone="no"?>
<!DOCTYPE svg PUBLIC "-//W3C//DTD SVG 20010904//EN"
 "http://www.w3.org/TR/2001/REC-SVG-20010904/DTD/svg10.dtd">
<svg version="1.0" xmlns="http://www.w3.org/2000/svg"
 width="500.000000pt" height="500.000000pt" viewBox="0 0 500.000000 500.000000"
 preserveAspectRatio="xMidYMid meet">
<metadata>
Created by potrace 1.11, written by Peter Selinger 2001-2013
</metadata>
<g transform="translate(0.000000,500.000000) scale(0.100000,-0.100000)"
fill="#000000" stroke="none">
<path d="M0 2500 l0 -2500 2500 0 2500 0 0 2500 0 2500 -2500 0 -2500 0 0
-2500z m992 322 l3 -328 290 328 290 328 222 0 c123 0 223 -2 223 -5 0 -2
-126 -145 -280 -317 -154 -172 -279 -317 -276 -323 2 -5 137 -207 300 -448
163 -242 296 -441 296 -443 0 -2 -105 -4 -232 -4 l-233 1 -200 299 c-110 165
-203 298 -208 297 -4 -1 -50 -49 -102 -107 l-94 -105 -1 -192 0 -193 -200 0
-200 0 0 770 0 770 200 0 200 0 2 -328z m2357 -129 c113 -248 208 -450 211
-448 3 2 97 206 210 454 l205 451 213 0 212 0 0 -770 0 -770 -170 0 -170 0 0
497 c0 273 -4 493 -8 487 -5 -5 -87 -189 -182 -409 -95 -220 -178 -406 -183
-412 -7 -9 -46 -13 -132 -13 l-122 0 -184 420 -184 420 -3 -495 -2 -495 -175
0 -175 0 0 770 0 770 216 -2 217 -3 206 -452z"/>
</g>
</svg>
